<svg width="714" height="527" viewBox="0 0 714 527" fill="none" xmlns="http://www.w3.org/2000/svg">
<g clip-path="url(#clip0_797_38596)">
<path fill-rule="evenodd" clip-rule="evenodd" d="M1684.75 522.473C1666.39 517.505 1648.16 532.347 1649.33 551.315C1650.78 574.817 1679.04 585.982 1696.48 569.947C1712.32 555.391 1705.57 528.106 1684.75 522.473ZM1622.48 499.484C1593.88 491.467 1573.88 526.786 1595.5 547.123C1603.97 555.087 1625.27 556.933 1629.66 550.084C1629.84 549.803 1630.67 549.136 1631.52 548.602C1649.33 537.276 1643.46 505.367 1622.48 499.484ZM1542.14 454.866C1528.15 449.678 1512.66 450.204 1499.3 456.321C1494.98 458.303 1485.71 464.289 1484.93 465.608C1484.71 465.983 1483.52 467.122 1482.28 468.14C1469.99 478.296 1463.62 503.042 1468.46 521.83C1471.18 532.414 1474.85 538.76 1483.53 547.914C1496.5 561.592 1519.78 566.979 1539.5 560.866C1543.93 559.493 1554.62 554.251 1555.26 553.139C1555.36 552.975 1556.18 552.283 1557.1 551.601C1591.4 526.065 1582.72 469.92 1542.14 454.866ZM1428.96 416.159C1403.57 404.686 1368.68 419.128 1357.29 445.826C1338.55 489.718 1377.94 535.276 1423.57 522.481C1433.69 519.643 1441.58 515.011 1448.97 507.574C1453.81 502.699 1460.91 490.359 1462.54 483.98C1463.65 479.632 1465.05 470.106 1464.71 469.171C1464.63 468.929 1464.56 467.161 1464.57 465.243C1464.62 445.92 1449.89 425.618 1428.96 416.159ZM772.205 57.468C764.082 55.2311 760.694 54.6051 755.792 54.4352C704.891 52.6708 678.435 111.152 712.798 149.474C716.793 153.928 731.881 163.204 737.29 164.531C740.739 165.377 747.894 166.55 749.734 166.572C750.498 166.581 751.74 166.607 752.495 166.63C790.722 167.803 820.801 125.45 805.969 91.3338C805.092 89.3156 804.289 87.2654 804.186 86.779C802.346 78.0998 783.111 60.4703 772.205 57.468ZM1643.38 572.341C1588.5 550.043 1530.24 608.989 1553.51 663.27C1554.33 665.18 1555.02 666.973 1555.05 667.255C1555.2 668.683 1560.55 677.359 1563.89 681.583C1573.91 694.25 1592.91 705.322 1607.39 706.931C1625.35 708.925 1640.6 706.152 1653.36 698.571C1671.76 687.645 1685.6 667.517 1687.8 648.465C1691.8 613.929 1675.03 585.203 1643.38 572.341ZM647.704 13.5568C620.499 3.6091 588.778 11.2686 571.388 31.9852C570.303 33.279 568.35 35.6091 567.05 37.1632C561.746 43.5029 556.12 56.2266 554.503 65.5405C554.078 67.9844 553.615 70.5065 553.473 71.1446C553.331 71.7832 553.2 73.5936 553.182 75.1674C553.164 76.7417 553.129 78.9611 553.105 80.0995C552.955 87.1582 555.239 98.2167 558.317 105.336C559.238 107.468 560.024 109.428 560.064 109.692C560.104 109.956 561.519 112.406 563.208 115.137C586.14 152.216 636.403 160.207 668.905 131.94C683.682 119.088 693.48 98.0527 693.074 80.0537C693.032 78.1989 693.067 76.5606 693.153 76.4123C693.448 75.901 691.99 65.9822 691.043 62.0563C685.73 40.0362 669.039 21.3583 647.704 13.5568ZM1328.96 414.502C1318.28 410.441 1303.99 414.986 1297.29 424.574C1279.58 449.906 1308.58 480.931 1334.78 464.7C1354.57 452.446 1351.15 422.938 1328.96 414.502ZM1265.5 390.11C1256.11 387.443 1244.32 390.313 1238.63 396.647C1233.94 401.872 1233.23 402.931 1231.78 406.813C1222.04 432.978 1251.33 455.721 1274.31 439.829C1278.97 436.6 1285.27 426.751 1285.49 422.337C1285.55 421.065 1285.76 419.752 1285.95 419.418C1290.3 411.885 1277.48 393.517 1265.5 390.11ZM830.423 141.001C803.557 137.255 787.141 167.77 805.308 187.689C826.887 211.348 864.914 184.91 850.837 156.036C847.275 148.731 838.265 142.094 830.423 141.001ZM536.557 7.62352C515.384 0.0670112 494.271 19.4844 500.208 41.0544C508.953 72.8256 555.5 66.3953 555.19 33.4588C555.103 24.2785 547.834 12.0181 540.779 9.15276C540.528 9.05092 538.628 8.36241 536.557 7.62352ZM1494.03 563.598C1489.28 561.739 1483.95 560.269 1481.54 560.157C1480.35 560.102 1479.11 559.903 1478.79 559.715C1469.56 554.386 1437.36 563.94 1423.1 576.238C1411.01 586.661 1397.94 611.507 1399.77 620.575C1399.86 620.988 1399.73 621.666 1399.49 622.082C1399.25 622.498 1399.09 625.567 1399.15 628.903C1400.15 694.309 1479.43 723.507 1522.42 674.307C1541.32 652.68 1544.46 615.764 1529.31 593.264C1528.79 592.491 1528.13 591.448 1527.85 590.947C1527.31 590.005 1525.74 587.845 1522.98 584.245C1517.91 577.62 1503.38 567.258 1494.03 563.598ZM1332.84 477.107C1310.99 472.656 1292.67 495.749 1301.93 516.077C1314.94 544.625 1357.67 533.709 1355.37 502.427C1354.45 489.968 1345.26 479.637 1332.84 477.107ZM778.651 171.581C766.618 169.41 755.556 179.989 756.847 192.43C758.001 203.546 770.032 211.499 780.936 208.352C799.926 202.872 798.2 175.108 778.651 171.581ZM1127.66 372.935C1114.85 370.779 1104.89 375.524 1098.38 386.879L1094.61 393.438L1094.38 398.542C1093.12 426.179 1126.6 439.212 1144.24 417.952C1157.2 402.324 1147.61 376.297 1127.66 372.935ZM1273.16 456.105C1266.46 453.775 1263 452.711 1262 452.681C1261.36 452.662 1259.34 452.506 1257.52 452.334C1225.86 449.348 1202.08 485.122 1216.71 513.725C1237.19 553.777 1296.89 539.578 1297.5 494.508C1297.7 479.343 1285.75 460.493 1273.16 456.105ZM844.872 212.94C837.115 210.056 823.823 208.23 820.276 209.561C820.031 209.653 819.008 209.79 818.003 209.867C793.114 211.752 771.233 235.471 769.583 262.356C766.727 308.904 818.83 337.936 857.627 311.415C873.414 300.623 884.286 276.865 881.257 259.78C881.106 258.924 880.711 256.542 880.38 254.486C880.049 252.43 879.171 249.156 878.43 247.209C877.688 245.263 876.893 243.179 876.664 242.578C875.157 238.626 871.077 232.42 866.62 227.304C862.089 222.102 852.523 215.784 844.872 212.94ZM1386.79 527.917C1350.94 514.154 1317.86 557 1341.05 587.174C1345.53 593.003 1346.5 593.909 1352.02 597.417C1385.73 618.843 1426.64 580.353 1407.16 545.533C1403.63 539.224 1401.38 536.859 1393.37 531.035C1392.42 530.346 1389.46 528.943 1386.79 527.917ZM687.314 131.5C674.153 129.418 662.524 142.112 666.011 154.754C672.419 177.986 706.096 170.864 703.013 146.929C702.067 139.592 695.085 132.729 687.314 131.5ZM725.726 165.199C706.96 160.147 689.363 173.644 689.821 192.737C690.496 220.861 727.85 230.492 741.897 206.162C751.007 190.383 742.889 169.818 725.726 165.199ZM1166.29 436.977C1113.72 418.153 1069.31 480.686 1103.82 524.943C1114.89 539.141 1141.1 549.886 1154.38 545.667C1154.61 545.592 1156.77 545.185 1159.17 544.761C1213.85 535.124 1219.09 455.882 1166.29 436.977ZM519.344 68.2921C508.903 64.8773 493.869 66.0148 486.188 70.7998C484.908 71.5974 483.458 72.4888 482.965 72.7807C443.429 96.2139 469.076 160.196 514.086 150.417C556.942 141.105 560.737 81.8288 519.344 68.2921ZM1060.5 382.437C1016.91 370.828 986.817 423.468 1019.33 454.463C1044.96 478.897 1088.35 461.947 1090.84 426.529C1092.25 406.422 1079.17 387.408 1060.5 382.437ZM1649.03 723.029C1627.59 714.501 1602.33 731.875 1601.6 755.641C1600.99 775.528 1620.41 795.307 1637.97 792.688C1638.45 792.616 1640.73 792.285 1643.04 791.952C1663.62 788.983 1676.67 769.039 1671.63 748.266C1670.12 742.053 1669.09 739.941 1664.56 733.696C1661.76 729.837 1655.73 725.696 1649.03 723.029ZM756.126 211.434C746.074 209.376 734.545 218.199 733.892 228.45C732.874 244.421 750.442 254.642 763.446 245.644C777.103 236.196 772.522 214.789 756.126 211.434ZM657.638 161.522C609.882 142.472 571.824 198.559 608.455 234.004C634.469 259.176 679.23 241.765 682.612 205.159C684.2 187.967 672.447 167.43 657.638 161.522ZM1544.92 679.834C1535.8 677.522 1525.22 683.435 1522.67 692.267C1517.67 709.556 1535.58 723.643 1550.51 714.155C1564.57 705.213 1561.11 683.939 1544.92 679.834ZM1586.22 705.84C1575.74 702.828 1564.39 709.974 1562.6 720.703C1559.49 739.376 1582.02 750.591 1594.91 736.789C1604.61 726.412 1599.94 709.788 1586.22 705.84ZM1705.4 797.084C1666.84 781.769 1624.88 814.028 1629.57 855.389C1633.91 893.785 1675.16 916.807 1709.62 900.075C1753.98 878.535 1751.39 815.354 1705.4 797.084ZM1278.94 553.285C1276.68 552.785 1272.13 553.896 1270.79 555.274C1265.2 561.045 1256.52 559.848 1253.18 552.846C1249.19 544.476 1244.87 542.096 1238.49 544.76C1236.2 545.714 1235.35 546.484 1232.65 550.017C1228.56 555.367 1219.82 555.384 1216.47 550.048C1210.87 541.103 1201.87 541.877 1196.46 551.769C1191.89 560.138 1187.88 561.132 1179.11 556.071C1169.73 550.653 1162.59 553.779 1161.57 563.752C1160.73 571.881 1152.81 576.156 1145.93 572.185C1139.24 568.322 1129.45 575.059 1130.91 582.521C1132.65 591.431 1124.5 600.323 1118.02 596.581C1112.1 593.166 1103.65 602.803 1106.23 610.019C1109.91 620.32 1107.63 625.202 1098.21 627.175C1087.84 629.348 1084.11 638.174 1090.64 645.101C1093.78 648.433 1094.36 653.235 1092.11 657.15C1090.58 659.792 1089.52 660.602 1084.93 662.617C1077.65 665.808 1076.27 674.519 1082.17 680.003C1088.12 685.524 1089.19 687.827 1088.04 692.625C1087.36 695.462 1087.14 695.773 1083.7 698.76C1075.58 705.807 1076.34 712.684 1085.83 717.863C1094.48 722.582 1095.65 726.844 1090.59 735.106C1084.99 744.252 1088.7 752.594 1098.56 753.021C1105.95 753.341 1110.07 760.744 1106.94 768.094C1102.77 777.909 1108.49 784.838 1119.65 783.487C1126.97 782.6 1132.27 788.495 1131.08 796.197C1130.23 801.702 1131.75 804.954 1136.46 807.679L1139.8 809.612L1145.36 807.982C1151.37 806.224 1153.34 806.258 1156.67 808.179C1158.75 809.38 1162.14 814.172 1161.58 815.132C1161.45 815.366 1161.57 816.601 1161.85 817.878C1163.82 826.737 1171.25 829.399 1179.23 824.107C1186.52 819.271 1193.75 821.062 1196.6 828.414C1197.98 831.954 1200.55 835.135 1202.41 835.601C1207.75 836.937 1212.65 835.576 1214.6 832.212C1218.79 824.992 1228.98 824.137 1233.1 830.657C1238.29 838.866 1248.3 838.006 1252.48 828.992C1256.45 820.436 1261.48 818.96 1269.64 823.952C1278.59 829.42 1286.98 826.361 1287.23 817.543C1287.48 808.56 1294.39 804.771 1304.19 808.233C1312.58 811.194 1319.38 805.118 1318.02 795.875C1316.95 788.647 1323.49 781.699 1329.7 783.468C1339.05 786.135 1346.31 777.376 1342.24 768.331C1338.75 760.561 1342.15 755.096 1352.02 752.638C1359.44 750.791 1361.59 748.292 1361.35 741.797C1361.26 739.307 1359.2 735.131 1357.62 734.218C1356.65 733.656 1355.35 728.029 1355.77 726.218C1356.74 722.081 1359.28 719.459 1364.16 717.56C1371.8 714.583 1372.84 703.246 1365.85 699.143C1358.96 695.097 1359.2 685.556 1366.32 680.57C1373.61 675.464 1372.13 666.442 1363.35 662.41C1354.83 658.502 1353.35 652.66 1358.86 644.721C1364.48 636.63 1359.73 626.672 1350.51 627.201C1343.64 627.594 1339.06 618.786 1342.31 611.425C1346.18 602.673 1340.82 595.933 1330.53 596.625C1321.56 597.229 1317.27 592.856 1318.08 583.931C1318.98 573.861 1313.06 569.355 1302.81 572.321C1293.36 575.056 1287.63 571.557 1287.25 562.825C1287.07 558.54 1283.34 554.253 1278.94 553.285ZM715.517 234.246C695.189 230.513 677.932 248.056 682.469 267.844C686.937 287.329 708.614 295.964 725.383 284.939L729.834 282.013L733.619 275.468L737.404 268.922L737.678 263.842C738.439 249.684 728.692 236.665 715.517 234.246ZM883.3 331.517C840.473 315.629 797.419 355.24 809.77 399.166C818.24 429.285 848.177 446.292 878.341 438.12C892.28 434.343 902.473 427.035 910.041 415.391C922.188 396.702 923.013 371.809 912.023 355.58C911.505 354.814 910.843 353.782 910.552 353.288C905.29 344.323 894.425 335.643 883.3 331.517ZM554.839 156.254C542.671 152.162 526.582 153.639 515.801 159.838C491.21 173.977 483.683 207.731 500.209 229.755C510.037 242.853 528.564 251.802 542.248 250.06C570.353 246.483 586.879 228.374 587.668 200.292C587.727 198.186 585.838 187.354 585.362 187.074C585.172 186.963 584.686 185.811 584.281 184.515C580.451 172.242 568.625 160.89 554.839 156.254ZM1535.58 727.591C1530.05 726.07 1522.45 724.901 1517.85 724.864C1509.06 724.793 1506.27 725.122 1498.5 727.147C1464.27 736.07 1442.63 767.214 1446.22 802.376C1447.7 816.891 1454.75 832.197 1464.85 842.836C1490.35 869.679 1531.33 872.055 1560.83 848.398C1603.18 814.433 1588.05 742.021 1535.58 727.591ZM967.637 404.94C938.133 393.677 905.946 420.565 911.33 451.976C917.699 489.13 964.452 500.733 987.258 470.82C1004.49 448.22 994.672 415.26 967.637 404.94ZM749.387 293.018C717.345 284.515 683.214 305.487 678.643 336.486C673.615 370.587 695.557 399.572 728.914 402.895C731.336 403.136 739.357 403.125 740.101 402.879C740.339 402.8 742.568 402.378 745.055 401.938C766.185 398.207 786.431 378.031 789.039 358.103C793.114 326.974 776.869 300.31 749.387 293.018ZM1441.27 697.693C1420.59 691.117 1400.62 709.823 1405.82 730.909C1411.15 752.542 1436.64 759.61 1452.84 743.948C1467.69 729.592 1461.3 704.061 1441.27 697.693ZM1042.72 469.22C1022.55 463.907 1003.94 480.155 1007.13 500.291C1010.38 520.75 1033.08 530.652 1050.63 519.262L1054.91 516.489L1058.69 509.941C1068.06 493.704 1060.28 473.842 1042.72 469.22ZM1612.3 801.031C1594.35 797.271 1581.86 816.065 1592.48 830.86C1601.98 844.102 1624.4 838.149 1626.15 821.92C1626.54 818.259 1625.38 811.278 1624.27 810.637C1623.93 810.442 1623.53 809.834 1623.39 809.287C1622.7 806.739 1616.11 801.83 1612.3 801.031ZM656.271 252.221C644.394 248.345 641.129 247.932 632.071 249.159C602.833 253.12 584.469 287.004 598.134 311.777C598.885 313.139 599.523 314.483 599.552 314.766C599.609 315.311 601.794 318.418 604.157 321.311C612.272 331.25 633.387 340.089 641.853 337.092C642.094 337.007 643.942 336.682 645.96 336.37C649.363 335.845 659.192 332.47 659.655 331.669C659.767 331.474 660.635 330.924 661.583 330.446C673.289 324.543 682.91 306.555 682.416 291.496C681.877 275.049 669.57 256.562 656.271 252.221ZM463.78 152.121C435.831 147.931 419.588 179.833 439.318 200.164C446.85 207.925 460.542 209.998 470.908 204.947C494.735 193.337 489.698 156.005 463.78 152.121ZM1084 519.949C1078.83 518.71 1076.05 518.24 1074.45 518.336C1073.85 518.371 1072.26 518.372 1070.91 518.337C1051.92 517.841 1032.35 536.035 1030.3 556.103C1026.28 595.463 1072.02 618.713 1101.64 592.363C1125.96 570.729 1115.42 527.483 1084 519.949ZM1710.73 910.844C1699.71 908.856 1689.22 916.739 1688.39 927.633C1686.85 947.922 1713.39 956.39 1723.37 938.793C1729.95 927.187 1723.61 913.165 1710.73 910.844ZM565.807 254.63C544.752 250.109 526.888 268.783 532.558 289.384C539.219 313.583 570.695 317.625 583.317 295.904C592.927 279.365 584.1 258.559 565.807 254.63ZM1590.36 846.899C1564.7 840.144 1545.08 867.604 1559.76 889.714C1567.44 901.277 1584.8 905.327 1596.59 898.303C1617.99 885.551 1614.06 853.14 1590.36 846.899ZM982.565 502.632C932.306 486.911 890.976 536.851 915.56 583.596C917.404 587.101 923.155 594.274 926.323 597.02C933.536 603.27 936.566 605.111 944.944 608.33C966.235 616.512 992.302 609.577 1007.28 591.747C1032.46 561.775 1019.24 514.105 982.565 502.632ZM788.513 392.948C778.596 391.343 768.06 399.736 767.228 409.903C765.579 430.062 792.107 438.647 802.173 421.212C808.877 409.601 801.873 395.11 788.513 392.948ZM1408.09 750.566C1373.82 742.422 1345.37 773.498 1356.93 806.46C1361.94 820.719 1376.47 832.757 1390.01 833.847C1391.46 833.964 1392.89 834.197 1393.2 834.366C1397.26 836.58 1415.26 831.318 1422.78 825.72C1450.32 805.218 1441.17 758.426 1408.09 750.566ZM886.797 453.725C877.29 450.062 875.368 449.57 867.935 448.884C834.073 445.762 805.888 483.081 818.436 514.423C819.253 516.462 820.136 518.706 820.399 519.411C824.483 530.357 840.402 543.175 853.43 546.005C883.842 552.612 913.826 530.07 914.019 500.454C914.03 498.732 914.086 496.879 914.143 496.335C915.596 482.529 900.496 459.001 886.797 453.725ZM1652.48 909.303C1614.64 896.726 1581.55 939.769 1603.39 973.156C1626.12 1007.9 1679.95 992.648 1681.65 950.981C1682.38 933.176 1669.67 915.016 1652.48 909.303ZM810.967 430.18C801.244 429.307 792.236 435.722 790.383 444.839C786.492 463.988 810.046 475.886 823.02 461.325C833.03 450.09 825.841 431.515 810.967 430.18ZM1773.28 995.567C1747.56 990.914 1726.18 1013.92 1732.96 1038.95C1741.88 1071.93 1786.92 1073.78 1799.32 1041.69C1806.77 1022.42 1793.69 999.259 1773.28 995.567ZM443.313 229.024C442.972 228.948 440.409 227.943 437.617 226.789C424.764 221.478 413.401 218.856 398.47 217.756C355.455 214.589 314.898 232.253 287.004 266.305C282.633 271.641 270.757 291.816 268.765 297.292C268.072 299.196 266.94 302.157 266.25 303.872C264.89 307.252 262.188 317.098 261.418 321.479C261.154 322.978 260.655 325.769 260.308 327.681C259.075 334.484 258.426 355.005 259.328 358.707C259.466 359.274 259.845 362.092 260.17 364.969C260.877 371.217 266.035 390.583 268.398 395.856C269.321 397.917 270.334 400.246 270.649 401.031C284.905 436.593 325.212 468.167 364.936 474.889C391.492 479.383 412.247 477.08 439.801 466.584C442.131 465.696 449.621 461.97 451.498 460.765C452.443 460.158 453.446 459.637 453.726 459.607C455.388 459.429 473.225 446.408 476.699 442.837C493.576 425.491 500.795 415.437 507.366 400.125C531.592 343.677 515.578 281.057 467.351 243.655C462.546 239.928 445.377 229.478 443.313 229.024ZM1716.05 965.276C1684.35 954.513 1664.6 999.118 1693.65 1015.87C1719 1030.48 1746.54 1001.53 1730.82 976.791C1727.09 970.915 1722.79 967.564 1716.05 965.276ZM578.702 313.369C553.47 308.305 535.584 337.795 551.465 358.276C568.336 380.032 603.478 366.16 601.292 338.607C600.308 326.196 591.043 315.846 578.702 313.369ZM744.916 411.921C728.97 410.77 718.883 427.296 727.297 440.787C733.006 449.942 745.804 452.189 754.672 445.592C768.144 435.571 761.641 413.128 744.916 411.921ZM644.117 358.581C606.913 346.442 571.245 379.234 580.838 416.757C586.898 440.463 608.176 455.489 632.947 453.556C644.468 452.657 656.39 446.667 664.622 437.64C672.48 429.024 677.799 415.092 677.168 404.78C677.076 403.283 677.141 401.816 677.31 401.522C677.48 401.228 676.661 397.338 675.49 392.878C671.018 375.845 659.952 363.748 644.117 358.581ZM1042.53 603.267C1033.18 599.812 1016.37 601.036 1009.04 605.704C1002.96 609.579 1001.27 610.769 999.976 612.069C999.186 612.862 997.8 614.262 996.895 615.18C991.359 620.796 986.554 632.667 986.166 641.694C984.439 681.8 1033.59 701.831 1060.52 671.993C1067.52 664.231 1073.13 648.845 1071.35 642.278C1071.29 642.05 1071.15 640.552 1071.03 638.947C1069.94 623.863 1058.08 609.009 1042.53 603.267ZM1513.43 875.464C1513.09 875.398 1510.1 874.31 1506.79 873.047C1499.14 870.122 1488.45 867.076 1483.7 866.464C1482.98 866.371 1481.55 866.14 1480.5 865.949C1413.85 853.74 1344.94 897.959 1326.97 964.473C1325.43 970.156 1324.45 974.6 1324.13 977.256C1323.99 978.388 1323.78 979.499 1323.65 979.724C1323.1 980.662 1321.92 998.336 1322.14 1002.2C1322.22 1003.59 1322.31 1005.72 1322.33 1006.94C1322.63 1023.26 1327.97 1044.07 1335.95 1060.05C1337.47 1063.08 1338.95 1066.15 1339.25 1066.86C1340.05 1068.74 1349.31 1082.55 1351.51 1085.14C1374.01 1111.6 1397.62 1126.35 1428.78 1133.41C1433.2 1134.42 1437.27 1135.26 1437.82 1135.29C1438.38 1135.33 1440.74 1135.6 1443.06 1135.9C1457.61 1137.78 1475.73 1136.55 1491.66 1132.6C1506.45 1128.93 1518.46 1123.66 1533.65 1114.18C1537.31 1111.9 1543.28 1107.28 1549.68 1101.78C1570.6 1083.81 1589.87 1048.65 1592.99 1022.72C1593.08 1022 1593.39 1019.51 1593.67 1017.18C1599.36 971.045 1581.97 927.181 1545.33 895.245C1541.53 891.937 1515.65 875.888 1513.43 875.464ZM455.203 272.56C465.073 281.91 477.07 297.611 478.085 302.506C478.136 302.751 478.883 304.451 479.746 306.283C483.092 313.39 487.53 329.648 488.041 336.671C488.213 339.027 488.419 341.15 488.5 341.389C493.06 354.851 479.585 395.312 465.088 411.687C422.633 459.641 352.484 458.663 310.8 409.535C302.877 400.197 293.448 380.676 291.356 369.282C289.947 361.608 289.258 356.653 289.203 353.793C289.173 352.239 289.056 350.757 288.942 350.499C287.835 347.983 290.48 327.046 292.951 318.772C296.924 305.464 307.046 287.667 315.457 279.199C319.442 275.188 325.32 269.86 326.026 269.621C326.424 269.486 326.929 269.066 327.147 268.688C328.162 266.93 345.46 256.493 348.612 255.736C348.847 255.679 351.139 254.802 353.705 253.787C386.59 240.774 430.154 248.832 455.203 272.56ZM779.609 459.083C770.087 455.107 756.616 455.523 745.301 460.142C700.714 478.344 720.285 551.351 768.004 544.831C814.814 538.435 823.096 477.239 779.609 459.083ZM1848.63 1080.21C1840.43 1077.22 1834.17 1075.26 1830.29 1074.46C1828.92 1074.18 1826.26 1073.61 1824.38 1073.2C1822.5 1072.79 1820.08 1072.36 1819 1072.23C1817.92 1072.11 1815.13 1071.76 1812.82 1071.45C1807.08 1070.68 1796.59 1070.39 1787.7 1070.75C1772.11 1071.38 1744.26 1078.78 1732.04 1085.54C1730.68 1086.29 1729.35 1086.94 1729.1 1086.98C1727.62 1087.24 1715.67 1094.76 1709.12 1099.55C1678.92 1121.64 1657.22 1158.05 1652.14 1195.17C1650.44 1207.59 1650.24 1212.26 1650.88 1224.81C1651.11 1229.37 1651.37 1233.29 1651.46 1233.54C1651.55 1233.78 1652.12 1237.25 1652.73 1241.25C1655.15 1257.24 1662.51 1277 1671.44 1291.52C1672.82 1293.77 1674.09 1295.93 1674.26 1296.3C1676.17 1300.59 1689.87 1316.53 1698 1323.92C1725.25 1348.68 1763.55 1363.43 1797.56 1362.27C1823.28 1361.38 1846.64 1355.19 1867.68 1343.66C1877.59 1338.24 1891.56 1327.64 1899.29 1319.7C1904.74 1314.09 1908.71 1309.64 1910.45 1307.19C1911.39 1305.86 1913.51 1303.04 1915.15 1300.92C1927.11 1285.55 1938.15 1257.71 1941.07 1235.56C1941.63 1231.32 1942.42 1215.12 1942.2 1212.5C1942.16 1212.07 1941.95 1208.95 1941.73 1205.55C1940.91 1193.26 1937.7 1177.93 1933.84 1167.97C1932.68 1164.98 1931.65 1162.14 1931.55 1161.65C1930.57 1157.07 1919.89 1137.95 1913.68 1129.68C1913.03 1128.81 1911.6 1126.92 1910.52 1125.47C1897.11 1107.64 1870.48 1088.16 1848.63 1080.21ZM701.636 427.151C689.087 423.795 678.632 427.402 669.916 438.097C657.481 453.356 673.065 484.902 691.615 482.02C692.248 481.922 693.71 481.893 694.865 481.957C724.339 483.587 730.362 434.835 701.636 427.151ZM883.473 552.058C861.963 549.06 852.032 577.815 870.828 588.667C884.793 596.731 901.876 585.422 900.098 569.291C899.143 560.616 892.038 553.253 883.473 552.058ZM1658.2 1001.65C1613.71 989.922 1584.03 1044.5 1618.39 1074.83C1626.28 1081.79 1640.22 1086.58 1648.6 1085.2C1649.1 1085.12 1651.31 1084.82 1653.51 1084.53C1671.75 1082.12 1686.67 1065.53 1688.84 1045.23C1690.83 1026.63 1676.69 1006.53 1658.2 1001.65ZM1714.48 1035.57C1700.93 1033.75 1690.42 1045.96 1693.92 1059.47C1697.03 1071.47 1711.82 1076.96 1722.25 1069.99C1736.98 1060.13 1731.97 1037.92 1714.48 1035.57ZM1337.79 821.514C1322.77 817.208 1298.86 822.233 1293.63 830.798C1293.4 831.176 1292.01 832.518 1290.54 833.781C1278.6 844.02 1274.4 866.706 1281.31 883.639C1291.42 908.403 1321.22 919.481 1345 907.32C1381.96 888.424 1377.29 832.836 1337.79 821.514ZM411.869 287.72C374.837 273.034 331.134 297.8 325.786 336.499C320.138 377.381 349.246 410.991 390.3 410.992C397.996 410.992 411.63 407.43 418.447 403.639C431.055 396.626 435.914 391.769 443.486 378.61C452.328 363.244 454.119 354.015 451.59 336.842C448.354 314.862 433.268 296.206 411.869 287.72ZM828.852 543.247C811.091 537.5 791.559 552.711 792.774 571.341C794.599 599.324 830.982 608.294 844.955 584.207C853.874 568.831 845.997 548.794 828.852 543.247ZM2086.33 1272.3C2068.22 1265.31 2056.91 1262.67 2041.11 1261.71C1975.14 1257.74 1915.93 1303.52 1903.15 1368.37C1902.43 1371.99 1901.92 1375.3 1902.02 1375.72C1902.11 1376.13 1902 1376.78 1901.79 1377.16C1901.57 1377.54 1901.22 1380.66 1901.02 1384.09C1900.82 1387.52 1900.58 1391.31 1900.5 1392.51C1900.41 1393.71 1900.53 1394.8 1900.76 1394.93C1900.98 1395.06 1901.02 1395.43 1900.84 1395.74C1900.49 1396.35 1901.08 1408.24 1901.53 1409.7C1901.68 1410.16 1902.04 1412.55 1902.33 1415C1905.74 1443.37 1924.31 1476.28 1947.9 1495.75C1966.2 1510.85 1992.04 1522.77 2011.2 1524.94C2012.73 1525.11 2014.24 1525.4 2014.56 1525.59C2014.88 1525.77 2015.95 1525.96 2016.95 1526C2017.95 1526.04 2021.33 1526.25 2024.48 1526.46C2030.05 1526.84 2031.27 1526.86 2039.13 1526.66C2056.37 1526.22 2079.15 1520.12 2094.55 1511.81C2096.4 1510.81 2098.66 1509.6 2099.58 1509.12C2107.36 1505.03 2119.7 1495.53 2127.39 1487.71C2145.65 1469.17 2158.87 1444.56 2163.48 1420.54C2175.24 1359.3 2140.92 1293.36 2086.33 1272.3ZM943.205 618.601C905.433 607.345 869.253 637.9 874.448 676.668C876.168 689.507 882.159 700.366 893.158 710.591C901.89 718.707 918.551 723.689 932.548 722.369C961.374 719.649 984.659 691.03 980.253 663.735C979.131 656.782 975.52 644.921 974.314 644.224C974.166 644.139 973.113 642.501 971.973 640.585C966.317 631.072 954.339 621.92 943.205 618.601ZM413.145 323.803C436.84 349.315 412.464 388.784 378.833 379.359C354.226 372.462 346.904 339.2 366.219 322.057C379.845 309.965 401.023 310.753 413.145 323.803ZM558.221 412.974C532.79 405.948 514.805 436.177 533.003 455.361C540.709 463.484 553.728 465.21 563.782 459.441C583.025 448.398 579.489 418.85 558.221 412.974ZM868.864 594.984C861.128 592.48 851.962 596.377 847.512 604.062C839.117 618.561 851.948 635.814 867.967 631.57C886.764 626.588 887.392 600.98 868.864 594.984ZM1035.52 698.301C1001.7 686.432 962.881 709.363 960.147 742.823C956.393 788.778 1000.97 821.588 1039.9 801.528C1041.49 800.713 1042.97 799.998 1043.2 799.939C1052.07 797.65 1067.59 777.333 1070.41 764.311C1076.63 735.572 1061.81 707.528 1035.52 698.301ZM770.303 555.103C756.986 552.7 745.402 564.481 748.274 577.507C751.538 592.312 769.642 597.533 780.253 586.731C790.683 576.113 784.902 557.736 770.303 555.103ZM648.53 494.932C640.19 491.385 627.099 487.543 624.963 488.017C624.544 488.109 623.835 487.973 623.387 487.715C619.027 485.198 592.381 486.347 579.055 489.626C575.304 490.549 572.61 491.501 562.085 495.626C550.951 499.99 535.345 511.121 525.827 521.489C512.59 535.907 500.738 559.776 498.93 575.654C498.795 576.838 498.547 578.045 498.38 578.335C496.998 580.729 496.85 599.671 498.131 610.132C503.114 650.795 535.439 689.05 573.814 699.698C580.92 701.67 584.274 702.44 587.076 702.747C588.622 702.916 590.133 703.196 590.435 703.37C591.33 703.888 605.736 704.635 610.13 704.392C620.356 703.827 624.245 703.201 634.349 700.494C647.518 696.968 655.594 693.366 666.827 686.012C672.16 682.52 673.444 681.512 679.903 675.75C702.822 655.304 717.132 621.155 715.164 591.601C715.014 589.352 714.756 585.589 714.59 583.237C713.97 574.451 707.991 554.388 703.562 546.227C703.259 545.667 702.419 544.047 701.696 542.625C691.828 523.215 670.91 504.451 648.53 494.932ZM211.089 251.295C177.882 242.07 148.118 270.761 156.903 303.528C165.618 336.041 206.475 346.015 230.043 321.383C251.216 299.254 240.452 259.452 211.089 251.295ZM799.529 598.827C780.963 592.42 759.326 600.699 749.313 618.041C733.392 645.617 752.31 680.135 784.331 681.937C788.414 682.166 789.605 682.05 795.7 680.821C798.676 680.222 806.669 677.214 807.052 676.549C807.154 676.373 808.013 675.838 808.961 675.36C818.661 670.468 827.563 655.83 828.671 642.948C829.395 634.533 828.453 629.844 823.86 619.002C820.684 611.505 809.577 602.296 799.529 598.827ZM852.905 636.607C836.607 635.494 826.529 653.679 836.147 666.846C845.907 680.208 868.24 674.197 870.011 657.732C871.132 647.301 863.033 637.298 852.905 636.607ZM1625.11 1087.39C1598.78 1078.17 1569.98 1097.02 1568.52 1124.43C1566.1 1169.66 1625.49 1187.79 1648.05 1148.7C1652.12 1141.65 1653.52 1136 1653.64 1126.1C1653.83 1109.99 1641.38 1093.09 1625.11 1087.39ZM519.092 454.732C505.001 449.319 490.46 461.222 493.385 475.776C496.78 492.675 519.626 496.764 528.151 481.998C533.824 472.173 529.337 458.668 519.092 454.732ZM1244.58 874.054C1231.96 867.708 1215.51 862.288 1204.96 861C1196.4 859.955 1195.65 859.897 1188.7 859.749C1158.22 859.099 1121.58 872.939 1103.12 892.071C1102.19 893.028 1100.99 894.091 1100.43 894.434C1091.56 899.945 1074.97 926.555 1068.57 945.547C1059.85 971.412 1061.24 1008 1071.81 1030.9C1074.6 1036.93 1078.96 1045.55 1079.84 1046.77C1080.28 1047.38 1081.36 1049.09 1082.24 1050.57C1097.42 1076.22 1127.4 1097.29 1159.02 1104.53C1168.2 1106.64 1179.59 1107.9 1187.61 1107.71C1195.18 1107.54 1197.79 1107.4 1199.02 1107.1C1199.74 1106.93 1202.87 1106.48 1205.97 1106.1C1220.41 1104.34 1239.09 1097.22 1253.56 1087.97C1279.29 1071.52 1300.61 1042.06 1306.68 1014.57C1307.05 1012.87 1307.67 1010.08 1308.05 1008.38C1319.57 956.704 1291.72 897.758 1244.58 874.054ZM1106.37 795.811C1091.13 789.44 1070.77 794.512 1059.36 807.524C1043.71 825.363 1045.32 851.755 1063.02 867.648C1075.26 878.646 1091.8 881.231 1108.47 874.754C1129.15 866.712 1140.16 837.764 1130.04 818.022C1129.18 816.353 1128.35 814.669 1128.19 814.279C1127.71 813.098 1124.12 808.395 1121.83 805.938C1119.3 803.232 1110.8 797.666 1106.37 795.811ZM638.124 558.334C673.535 589.853 649.603 647.601 602.5 644.294C556.633 641.074 540.699 581.438 578.571 554.735C579.919 553.784 581.25 552.981 581.529 552.95C581.808 552.919 582.933 552.311 584.029 551.6C586.8 549.8 598.908 546.471 602.71 546.465C604.441 546.461 606.05 546.397 606.285 546.323C606.52 546.248 608.064 546.296 609.716 546.429C620.584 547.307 630.319 551.386 638.124 558.334ZM839.296 679.373C815.432 674.994 796.098 695.894 802.926 718.689C810.957 745.499 845.481 749.541 859.505 725.314L863.293 718.77L863.776 712.907C865.076 697.151 854.078 682.086 839.296 679.373ZM915.072 726.251C903.856 723.142 886.902 724.894 879.216 729.956C878.018 730.745 875.961 732.071 874.644 732.904C837.992 756.071 853.525 815.967 897.257 820.106C926.926 822.914 954.284 795.568 949.745 767.642C946.323 746.586 933.587 731.382 915.072 726.251ZM479.264 484.389C464.474 481.342 452.458 495.475 457.8 509.634C460.764 517.486 468.68 522.482 476.969 521.732C498.158 519.814 500.072 488.675 479.264 484.389ZM213.26 347.968C181.893 334.874 147.305 360.71 149.977 395.238C152.198 423.93 181.488 443.748 209.298 435.374C251.368 422.707 253.985 364.969 213.26 347.968ZM740.341 671.437C713.759 667.735 697.599 699.685 716.387 718.795C728.156 730.764 747.341 729.774 758.038 716.646C771.687 699.896 761.712 674.413 740.341 671.437ZM999.91 822.896C982.761 816.915 960.009 815.988 945.238 820.668C900.039 834.991 874.105 876.048 881.601 921.415C882.95 929.58 888.293 945.883 889.93 946.828C890.179 946.972 890.517 947.574 890.683 948.167C895.077 963.929 926.174 988.411 947.513 992.908C956.719 994.848 970.593 996.254 972.924 995.482C973.161 995.403 975.299 995.232 977.674 995.1C989.216 994.46 1007.38 987.921 1019.09 980.19C1032.61 971.264 1046.45 954.447 1051.23 941.125C1054.23 932.767 1054.78 931.051 1055.68 927.282C1057.37 920.204 1058.93 905.339 1058.17 903.572C1058.06 903.317 1057.94 901.836 1057.91 900.282C1057.3 868.663 1031.17 833.797 999.91 822.896ZM1562.3 1154.44C1561.81 1154.3 1558.77 1153.02 1555.55 1151.61C1548.97 1148.72 1540.14 1145.62 1535.5 1144.59C1528.12 1142.94 1525.89 1142.52 1520.69 1141.8C1513.9 1140.87 1500.99 1140.19 1499.6 1140.7C1499.04 1140.91 1498.37 1140.96 1498.11 1140.81C1497.6 1140.51 1486.85 1141.34 1483.6 1141.92C1460.04 1146.15 1437.84 1155.4 1423.2 1167.1C1416.73 1172.26 1414.56 1174.14 1410.41 1178.18C1393.57 1194.56 1380.67 1216.46 1374.8 1238.64C1373.37 1244.05 1372.03 1250.12 1371.86 1251.96C1371.79 1252.69 1371.47 1255.18 1371.16 1257.49C1370.5 1262.32 1369.96 1273.24 1370.17 1277.66C1370.46 1283.88 1370.88 1289.14 1371.15 1289.97C1371.3 1290.44 1371.82 1293.41 1372.29 1296.56C1374.54 1311.51 1381.16 1328.89 1389.99 1343.02C1391.12 1344.84 1392.35 1346.8 1392.7 1347.39C1393.06 1347.97 1394.15 1349.52 1395.13 1350.82C1396.1 1352.13 1397.6 1354.15 1398.47 1355.32C1415.28 1378.12 1451.55 1400.32 1477.08 1403.43C1478.26 1403.58 1479.45 1403.83 1479.72 1403.99C1481.11 1404.79 1500.65 1406.26 1505.34 1405.91C1506.87 1405.8 1508.25 1405.79 1508.42 1405.89C1513.5 1408.82 1550.15 1398.55 1566.73 1389.54C1574.33 1385.41 1578.57 1382.52 1588.58 1374.64C1605.78 1361.1 1622.42 1335.82 1629.72 1312.13C1632.09 1304.44 1632.84 1301.14 1634.34 1291.78C1634.79 1288.99 1635.65 1274.75 1635.55 1271.73C1635.5 1270.3 1635.43 1267.59 1635.39 1265.7C1634.91 1243.72 1623.78 1212.98 1609.51 1194.28C1608.85 1193.42 1607.63 1191.8 1606.78 1190.67C1601.56 1183.71 1592.93 1175.22 1584.23 1168.49C1579.34 1164.71 1564.15 1154.97 1562.3 1154.44ZM432.406 503.839C373.253 480.674 322.877 551.503 362.714 601.826C393.11 640.223 457.872 625.524 470.266 577.416C471.746 571.67 472.776 561.279 472.217 557.728C472.103 557.01 471.74 554.223 471.409 551.535C468.992 531.916 452.451 511.689 432.406 503.839ZM1876.14 1358.07C1862.77 1356.31 1851.96 1367.41 1854.54 1380.25C1857.2 1393.45 1872.52 1399.82 1883.64 1392.34C1897.57 1382.97 1892.59 1360.22 1876.14 1358.07ZM809.342 742.766C775.321 729.054 737.584 751.74 732.863 788.744C731.863 796.58 733.876 809.587 737.289 817.348C738.573 820.264 740.616 824.302 740.888 824.459C741.015 824.532 742.155 826.119 743.421 827.985C750.9 839.007 767.859 849.256 780.676 850.499C805.513 852.91 825.469 843.123 837.188 822.784C846.206 807.132 847.277 791.304 840.53 773.376C835.596 760.262 823.643 748.531 809.342 742.766ZM258.965 435.185C255.748 433.987 251.052 433.176 249.385 433.531C248.694 433.678 247.85 433.638 247.511 433.442C246.383 432.791 235.769 436.034 232.652 437.982C205.922 454.687 217.256 496.073 248.596 496.199C283.929 496.341 292.218 447.567 258.965 435.185ZM97.1947 346.317C92.0349 344.37 87.1541 343.059 83.5867 342.66C5.42856 333.928 -29.4249 433.336 38.2141 472.07C105.365 510.525 173.45 430.61 127.077 367.766C121.217 359.824 108.161 350.452 97.1947 346.317ZM333.359 492.041C308.36 486.025 291.364 515.59 308.93 534.534C323.113 549.829 349.672 540.959 352.389 520.021C354.055 507.185 345.79 495.032 333.359 492.041ZM701.686 716.265C700.453 716.071 698.958 715.665 698.363 715.364C689.893 711.064 668.745 717.412 659.014 727.177C638.127 748.134 646.385 787.913 673.436 796.655C674.894 797.126 676.994 797.844 678.105 798.249C685.463 800.937 703.45 798.879 709.779 794.624C710.854 793.901 712.142 793.072 712.638 792.783C723.263 786.602 732.292 770.961 731.994 759.257C731.979 758.672 732.037 757.574 732.122 756.817C732.582 752.735 729.213 740.496 726.216 735.36C721.516 727.306 708.762 717.379 701.686 716.265ZM865.124 816.212C838.968 813.269 823.543 845.121 842.071 863.818C861.608 883.534 895.62 864.934 889.337 837.97C888.691 835.2 885.89 828.552 885.201 828.155C884.932 827.999 883.954 826.813 883.026 825.517C879.993 821.279 871.658 816.947 865.124 816.212ZM1353.08 1102.12C1338.75 1099.86 1325.49 1108.36 1321.51 1122.35C1314.46 1147.09 1341.73 1167.1 1363.7 1153.29C1384.84 1140 1377.79 1106.01 1353.08 1102.12ZM1829.02 1389.46C1818.67 1384.83 1801.35 1380.05 1791.95 1379.24C1770.52 1377.39 1752.36 1379.07 1736.85 1384.36C1733.86 1385.38 1730.72 1386.39 1729.87 1386.62C1726.02 1387.63 1714.77 1393.02 1707.13 1397.52C1672.84 1417.71 1648.26 1456.18 1643.97 1496.37C1643.38 1501.88 1643.04 1509.36 1643.19 1513.38C1643.83 1529.87 1646.26 1543.4 1650.58 1554.53C1651.74 1557.51 1652.77 1560.36 1652.86 1560.86C1653.07 1561.9 1656.31 1568.9 1658.57 1573.19C1669.96 1594.78 1688.33 1613.84 1709.52 1626.08C1723.97 1634.42 1739.88 1639.9 1757.31 1642.53C1762.05 1643.24 1777.41 1643.94 1781.82 1643.63C1784.22 1643.47 1787.82 1643.23 1789.81 1643.1C1791.81 1642.97 1793.83 1642.75 1794.3 1642.6C1794.77 1642.45 1798.27 1641.77 1802.09 1641.1C1805.9 1640.42 1811.75 1638.93 1815.09 1637.78C1818.43 1636.63 1822.2 1635.35 1823.49 1634.94C1829.15 1633.11 1849.6 1622.43 1850.54 1620.8C1850.71 1620.51 1851.8 1619.67 1852.96 1618.92C1869.36 1608.4 1891.17 1581.51 1898.04 1563.33C1901.95 1553 1904.05 1545.95 1906.02 1536.61C1907.84 1527.94 1909.25 1509.82 1908.44 1505.65C1908.3 1504.93 1908.23 1504.05 1908.29 1503.7C1908.47 1502.56 1907.31 1491.33 1906.71 1488.5C1901.1 1461.92 1892 1442.61 1876.7 1424.85C1863.34 1409.32 1848.02 1397.95 1829.02 1389.46ZM1295.64 1083.9C1267.24 1076.17 1245.01 1107.45 1261.54 1131.88L1264.42 1136.14L1271.76 1140.38C1277.47 1143.68 1279.61 1144.66 1281.42 1144.82C1282.7 1144.93 1284.2 1145.07 1284.73 1145.13C1292.33 1146.02 1302.08 1142.57 1308.51 1136.72C1326.22 1120.58 1318.82 1090.2 1295.64 1083.9ZM182.595 444.643C128.278 428.109 95.0507 500.271 144.068 528.313C190.805 555.05 236.667 494.998 199.549 455.666C196.112 452.023 186.666 445.882 182.595 444.643ZM2062.24 1531.85C2041.03 1526.3 2021.9 1546.17 2028.3 1567.11C2034.29 1586.73 2059.08 1593.37 2074.24 1579.43C2090.24 1564.72 2083.35 1537.37 2062.24 1531.85ZM1680.28 1318.55C1653.83 1308.18 1622.53 1326.4 1618.31 1354.61C1612.34 1394.63 1656.54 1423.21 1689.7 1400.77C1721.25 1379.41 1715.88 1332.51 1680.28 1318.55ZM267.989 506.678C267.126 506.507 264.5 505.935 262.152 505.407C258.061 504.488 250.913 503.64 249.993 503.966C249.752 504.051 248.679 504.079 247.61 504.029C212.584 502.375 184.565 545.464 198.063 580.223C221.23 639.877 309.667 620.219 306.396 556.143C305.345 535.557 285.646 510.186 267.989 506.678ZM1385.65 1153.01C1375.67 1150.42 1364.37 1157.48 1362.55 1167.44C1359.06 1186.59 1382.16 1198.3 1395.09 1183.93C1404.59 1173.37 1399.47 1156.61 1385.65 1153.01ZM452.188 623.903C432.481 621.684 416.568 640.393 422.032 659.356C428.864 683.071 460.691 687.069 473.044 665.764C483.182 648.281 472.156 626.15 452.188 623.903ZM1983.41 1524.38C1974.97 1521.39 1962.21 1519.72 1956.85 1520.9C1955.92 1521.11 1953.36 1521.58 1951.16 1521.96C1915.21 1528.12 1895.06 1566.17 1908.4 1602.74C1916.01 1623.62 1940.24 1639.49 1963.8 1639.03C1991.08 1638.49 2017.34 1616.76 2020.98 1591.71C2022.39 1581.97 2022.41 1576.2 2021.03 1569.03C2017.03 1548.17 2002.77 1531.25 1983.41 1524.38ZM619.976 738.601C601.67 732.421 577.525 748.551 581.71 764.163C581.85 764.685 581.819 765.364 581.642 765.672C581.017 766.754 582.945 774.39 584.632 777.509C596.861 800.125 630.425 796.82 636.664 772.384C640.209 758.501 632.46 742.816 619.976 738.601ZM837.597 871.702C827.806 868.316 812.902 869.704 810.279 874.247C810.142 874.484 808.898 875.505 807.514 876.515C785.306 892.729 804.553 930.646 832.038 924.829C857.724 919.392 861.837 880.085 837.597 871.702ZM1333.25 1164.32C1293.07 1148.97 1251.27 1187.59 1262.85 1229.38C1275.05 1273.42 1333.25 1283.24 1359.04 1245.61C1378.98 1216.51 1366.45 1177.01 1333.25 1164.32ZM331.054 586.213C307.208 581.49 288.798 602.383 297.624 624.149C309.412 653.217 352.956 643.063 351.373 611.615C350.822 600.673 340.799 588.143 331.054 586.213ZM487.019 680.595C463.144 671.958 440.953 701.689 455.409 722.945C460.766 730.823 474.688 737.885 480.265 735.554C480.519 735.448 481.98 735.214 483.513 735.034C511.949 731.7 514.598 690.572 487.019 680.595ZM1231.04 1116.52C1206.88 1109.64 1181.38 1122.79 1173.79 1146.04C1159.19 1190.78 1210.09 1225.99 1247.27 1196.86C1275.59 1174.67 1265.85 1126.42 1231.04 1116.52ZM548.274 723.033C521.784 711.73 490.63 732.413 489.939 761.761C488.974 802.699 541.253 820.979 566.385 788.491C572.616 780.436 577.06 764.583 574.937 757.982C574.861 757.746 574.537 756.145 574.217 754.423C571.667 740.719 561.831 728.818 548.274 723.033ZM2055.21 1593.02C2040 1587.02 2020.75 1598.83 2018.47 1615.55C2015.32 1638.69 2039.82 1655.49 2060.03 1644.04C2081.12 1632.08 2078.29 1602.12 2055.21 1593.02ZM746.688 845.235C733.393 839.623 716.443 838.687 701.745 842.751C696.619 844.168 692.826 845.76 684.613 849.941C682.928 850.798 676.765 855.416 673.03 858.619C651.432 877.143 644.124 913.431 656.799 939.215C657.771 941.192 658.598 943.027 658.637 943.292C658.796 944.372 666.858 955.566 669.265 958.047C679.326 968.421 696.114 977.525 708.154 979.136C714.917 980.042 725.24 980.451 726.936 979.881C727.174 979.801 728.716 979.579 730.364 979.388C741.329 978.12 761.725 969.235 764.431 964.549C764.571 964.306 765.798 963.214 767.156 962.122C805.696 931.164 794.157 865.271 746.688 845.235ZM1028 1009.37C1012 1003.91 992.843 1013.82 988.366 1029.88C980.278 1058.88 1011.52 1081.44 1036.47 1064.61C1057.04 1050.73 1051.95 1017.55 1028 1009.37ZM383.739 644.399C325.61 628.07 272.227 688.449 299.178 740.041C300.091 741.788 300.866 743.44 300.901 743.712C300.989 744.389 306.174 752.351 307.937 754.516C318.319 767.261 332.4 776.21 347.291 779.527C360.703 782.514 376.336 781.422 387.782 776.698C390.498 775.577 393.066 774.527 393.489 774.365C393.911 774.203 395.425 773.349 396.852 772.468C398.28 771.586 399.662 770.83 399.923 770.788C400.424 770.707 406.726 766.062 409.225 763.933C419.641 755.058 433.355 730.665 431.74 723.885C431.639 723.462 431.764 722.749 432.018 722.299C433.286 720.054 433.199 707.768 431.855 699.323C431.009 694.005 426.785 681.133 425.333 679.446C424.988 679.044 424.523 678.215 424.301 677.602C420.012 665.792 399.177 648.736 383.739 644.399ZM641.086 800.657C597.74 786.94 570.592 846.971 609.883 869.656C643.283 888.939 683.341 848.932 662.022 817.583C661.095 816.221 659.742 814.251 659.014 813.204C655.63 808.343 647.586 802.713 641.086 800.657ZM92.8194 491.234C70.8555 484.283 50.5233 504.377 57.3972 526.241C63.8629 546.803 91.0247 552.597 104.933 536.379C118.106 521.02 111.719 497.215 92.8194 491.234ZM1073.73 1058.52C1057.17 1053.08 1042.91 1073.55 1053.22 1087.96C1058.33 1095.1 1075.76 1098.1 1079.05 1092.4C1079.33 1091.91 1079.99 1091.4 1080.51 1091.26C1081.03 1091.12 1082.59 1089.31 1083.97 1087.23C1091.05 1076.6 1086.05 1062.58 1073.73 1058.52ZM863.453 938.847C855.529 935.567 842.324 932.769 838.194 933.495C837.519 933.614 836.785 933.606 836.564 933.479C831.532 930.574 802.135 940.507 794.161 947.807C793.663 948.262 791.62 950.049 789.622 951.776C743.984 991.231 770.761 1068.7 831.607 1073.24C889.68 1077.58 927.061 1012.42 894.31 963.945C891.805 960.238 889.394 956.996 888.952 956.74C888.51 956.485 887.328 955.312 886.328 954.134C882.009 949.053 872.081 942.418 863.453 938.847ZM962.295 1000.62C952.745 999.11 942.859 1005.88 941.005 1015.21C936.806 1036.33 964.799 1047.35 975.622 1028.84C982.435 1017.18 975.61 1002.73 962.295 1000.62ZM1155.67 1112.75C1150.26 1110.82 1142.98 1112.26 1138.1 1116.22C1125.56 1126.4 1131.05 1147.26 1146.83 1149.38C1170.2 1152.52 1177.89 1120.65 1155.67 1112.75ZM154.692 539.467C108.249 522.177 63.0859 571.6 84.6299 616.138C90.0178 627.276 96.2958 633.902 107.701 640.487C144.072 661.485 189.167 636.926 191.433 594.887C191.573 592.279 191.607 589.941 191.507 589.691C191.408 589.442 191.221 587.788 191.092 586.017C189.634 565.984 174.733 546.927 154.692 539.467ZM1112.85 1095.56C1102.14 1092 1090.3 1098.56 1087.87 1109.4C1084.19 1125.83 1102.67 1138.49 1116.93 1129.31C1129.31 1121.34 1126.76 1100.18 1112.85 1095.56ZM1609.32 1393.21C1606.38 1392.41 1603.18 1391.69 1602.22 1391.6C1597.33 1391.16 1593.18 1391.03 1591.97 1391.29C1591.22 1391.44 1589.3 1391.74 1587.68 1391.94C1537.5 1398.21 1537.83 1475 1588.07 1483.4C1644.26 1492.8 1664.21 1408.11 1609.32 1393.21ZM2011.82 1643.38C2002.77 1640.28 1983.64 1643.17 1980.82 1648.06C1980.59 1648.45 1980.04 1648.87 1979.58 1648.99C1978 1649.42 1972.16 1655.86 1970.05 1659.49C1954.65 1686.12 1978.19 1718.68 2008.34 1712.44C2012.76 1711.52 2021.06 1707.82 2021.88 1706.41C2022.12 1706 2022.66 1705.56 2023.09 1705.44C2024.51 1705.05 2029.6 1699.08 2031.79 1695.26C2043.04 1675.55 2033.51 1650.81 2011.82 1643.38ZM252.704 628.139C252.366 628.061 250.318 627.523 248.154 626.945C184.766 610.02 147.485 695.702 203.786 728.919C250.385 756.413 304.848 708.7 283.99 658.654C278.81 646.226 262.647 630.462 252.704 628.139ZM1031.03 1084.82C1013.75 1078.57 991.065 1087.86 983.907 1104.11C967.116 1142.24 1009.09 1176.86 1042.13 1152.14C1066.57 1133.84 1060.23 1095.38 1031.03 1084.82ZM1343.83 1267.24C1323.66 1266.14 1315.7 1292.08 1333.13 1302.1C1347.57 1310.4 1364.28 1298.42 1360.85 1282.23C1359.16 1274.23 1351.7 1267.67 1343.83 1267.24ZM944.428 1038.79C915.247 1027.82 884.958 1051.94 887.537 1084.09C887.846 1087.93 890.028 1095.16 891.629 1097.64C892.327 1098.72 892.915 1099.85 892.934 1100.15C893.131 1103.13 901.846 1111.56 909.008 1115.69C934.102 1130.18 969.282 1114.01 971.987 1086.75C972.059 1086.02 972.258 1083.94 972.429 1082.12C974.2 1063.26 962.861 1045.71 944.428 1038.79ZM1123.34 1145.16C1109.44 1139.12 1088.87 1139.39 1076.72 1145.77C1074.95 1146.7 1073.28 1147.48 1073.01 1147.52C1070.5 1147.84 1061.29 1155.25 1056.16 1161.06C1017.95 1204.39 1060.4 1272.13 1116.23 1256.9C1170.51 1242.09 1175.24 1167.72 1123.34 1145.16ZM1943.46 1639.99C1933.28 1637.66 1921.12 1647.21 1921.12 1657.52C1921.12 1673.89 1937.35 1682.91 1950.82 1674.02C1964.55 1664.94 1959.97 1643.77 1943.46 1639.99ZM1188.51 1207.14C1178.2 1203.47 1166 1211.02 1164.23 1222.14C1161.79 1237.42 1178.34 1249.24 1191.69 1241.75C1206.43 1233.49 1204.53 1212.84 1188.51 1207.14ZM1253.47 1244.66C1217.93 1229.69 1179.44 1262.08 1187.44 1300.22C1196.59 1343.84 1255.44 1353.28 1277.65 1314.69C1292.55 1288.81 1281.37 1256.4 1253.47 1244.66ZM1346.92 1313.31C1313.55 1300.24 1275.13 1321.42 1268.09 1356.76C1259.55 1399.69 1298.36 1436.59 1340.81 1425.87C1344.3 1424.99 1348.6 1423.51 1350.36 1422.59C1352.13 1421.66 1353.78 1420.87 1354.04 1420.83C1354.3 1420.78 1356.38 1419.47 1358.66 1417.91C1386.11 1399.11 1393.39 1363.49 1375.41 1335.97C1373.67 1333.32 1372.69 1332.14 1367.16 1326.06C1364.66 1323.32 1351.81 1315.23 1346.92 1313.31ZM1882.03 1622.32C1876.04 1620.28 1867.39 1621.03 1861.59 1624.09C1831.95 1639.76 1848.48 1684.29 1880.94 1676.2C1908.53 1669.33 1909.29 1631.61 1882.03 1622.32ZM1607.61 1500.08C1597.98 1497.47 1587.59 1503.7 1584.98 1513.65C1580.88 1529.31 1597.55 1542.79 1611.77 1535.32C1627.18 1527.22 1624.52 1504.67 1607.61 1500.08ZM145.988 658.092C135.439 656.664 125.908 660.694 118.328 669.789C112.539 676.735 112.372 692.239 117.994 700.785C134.977 726.603 173.846 711.215 169.276 680.483C167.727 670.064 156.797 659.555 145.988 658.092ZM1163.84 1245.61C1148.51 1242.35 1135.92 1258.44 1142.93 1272.32C1153.55 1293.36 1184.94 1280.39 1177.64 1257.97C1175.68 1251.95 1170.08 1246.93 1163.84 1245.61ZM1484.14 1430.63C1426.15 1405.01 1352.33 1435.66 1332.12 1493.73C1328.39 1504.47 1327.02 1509.48 1325.44 1518.16C1320.49 1545.45 1329.26 1580.82 1346.65 1603.68C1348.38 1605.95 1350.15 1608.29 1350.59 1608.87C1365.55 1628.83 1396.04 1645.64 1424 1649.31C1428.99 1649.97 1444.74 1650.45 1445.96 1649.99C1446.21 1649.89 1448.06 1649.68 1450.07 1649.52C1492.18 1646.07 1535.07 1612.34 1546.89 1573.38C1549.86 1563.56 1551.57 1556.55 1552.04 1552.25C1553.29 1540.67 1553.4 1534.06 1552.52 1524.59C1551.44 1513.11 1547.48 1498.14 1543.07 1488.88C1542.14 1486.93 1541.33 1485.13 1541.28 1484.89C1540.98 1483.57 1534.15 1472.23 1531.42 1468.54C1518.96 1451.69 1503.19 1439.04 1484.14 1430.63ZM859.748 1080.18C838.824 1073.55 825.799 1103.48 844.79 1114.56C855.991 1121.1 869.856 1115.17 872.707 1102.62C874.884 1093.03 869.192 1083.18 859.748 1080.18ZM965.751 1144.03C957.858 1140.32 944.503 1135.22 939.134 1133.87C930.443 1131.69 927.945 1131.15 922.758 1130.34C884.238 1124.36 843.555 1134.31 813.222 1157.13C782.456 1180.28 759.617 1218.06 755.727 1252.23C755.592 1253.43 755.299 1255.71 755.076 1257.31C753.95 1265.42 753.939 1287.61 755.061 1291.18C755.209 1291.65 755.561 1294.05 755.843 1296.52C756.612 1303.23 760.681 1318.77 763.462 1325.61C764.812 1328.93 766.001 1332.04 766.104 1332.53C766.935 1336.42 782.464 1362.51 784.741 1363.84C785.187 1364.1 785.655 1364.65 785.782 1365.06C786.228 1366.51 796.464 1377.6 801.664 1382.26C819.021 1397.82 844.982 1411.69 864.932 1416.07C877.057 1418.73 883.264 1419.6 893.693 1420.1C900.212 1420.41 917.748 1419.69 919.099 1419.05C919.363 1418.93 922.158 1418.44 925.31 1417.97C932.549 1416.9 942.543 1414.22 949.517 1411.48C952.487 1410.31 955.148 1409.33 955.431 1409.31C960.795 1408.75 983.778 1394.42 996.721 1383.55C1019.97 1364.03 1040.72 1326.29 1043.84 1297.85C1043.96 1296.71 1044.14 1295.64 1044.24 1295.47C1045.39 1293.49 1046.06 1273.27 1045.31 1263.49C1044.77 1256.51 1044.33 1253.55 1042.17 1242.3C1034.65 1203.25 1001.8 1161.01 965.751 1144.03ZM1823.68 1646.15C1805.27 1642.05 1792.8 1664.03 1805.78 1677.72C1812.88 1685.22 1825.44 1685.25 1832.83 1677.78C1842.99 1667.51 1837.72 1649.27 1823.68 1646.15ZM768.552 1051.79C728.028 1033.08 676.183 1063 671.725 1107.67C671.611 1108.81 671.44 1109.88 671.345 1110.05C671.251 1110.21 671.201 1113.02 671.233 1116.29C671.603 1153.18 699.083 1182.86 735.759 1185.99C739.589 1186.31 742.949 1186.48 743.226 1186.36C743.502 1186.25 745.582 1186.05 747.848 1185.92C778.095 1184.25 807.303 1156.31 810.572 1125.91C814.095 1093.15 798.485 1065.61 768.552 1051.79ZM1626.04 1551.65C1619.84 1549.43 1608.92 1547.95 1606.29 1548.96C1606.04 1549.06 1604.14 1549.4 1602.07 1549.73C1551.41 1557.69 1552.74 1634.34 1603.65 1641.25C1658.64 1648.72 1678.24 1570.29 1626.04 1551.65ZM1120.79 1271.78C1071.77 1257.05 1028.11 1306.73 1049.53 1352.87C1067.18 1390.92 1115.31 1399.05 1146.02 1369.18C1149.93 1365.37 1159.17 1349.51 1160.02 1345.13C1160.32 1343.58 1160.8 1341.56 1161.08 1340.64C1161.58 1339.02 1162.43 1329.41 1162.32 1326.55C1161.56 1305.5 1150.49 1287.12 1132.38 1276.84C1128.2 1274.48 1124.78 1272.98 1120.79 1271.78ZM1248.32 1347.96C1241.4 1347.05 1234.78 1350.24 1231.38 1356.13C1221.65 1372.98 1244.66 1389.98 1257.83 1375.67C1266.89 1365.82 1261.35 1349.67 1248.32 1347.96ZM1772.01 1650.95C1756.27 1645.99 1737.65 1658.82 1736.48 1675.44C1734.36 1705.64 1773.13 1717.86 1788.22 1691.76C1797.59 1675.57 1790.07 1656.65 1772.01 1650.95ZM1200.07 1335.34C1168.7 1328.72 1151.71 1371.04 1179.33 1386.99C1205.25 1401.96 1232.88 1372.01 1216.41 1346.8C1213.94 1343.02 1204.25 1336.23 1200.07 1335.34ZM1474.93 1495.14C1487.23 1506.23 1494.91 1525.07 1493 1539.47C1492.89 1540.36 1492.75 1541.7 1492.7 1542.44C1491.6 1557.83 1476.67 1579.3 1463.62 1584.23C1463.16 1584.4 1460.56 1585.47 1457.83 1586.6C1438.07 1594.79 1407.1 1586.67 1396.88 1570.61C1396.55 1570.09 1395.34 1568.46 1394.2 1567.01C1387.7 1558.71 1383.52 1543.51 1384.49 1531.65C1384.64 1529.82 1384.78 1527.83 1384.81 1527.24C1385.27 1515.81 1397.09 1497.54 1408.8 1490.16C1430.05 1476.77 1456.79 1478.78 1474.93 1495.14ZM1693.64 1624.54C1684 1620.92 1669.13 1621.61 1659.91 1626.1C1658.31 1626.88 1656.81 1627.57 1656.58 1627.63C1654.9 1628.07 1648.16 1633.36 1644.28 1637.29C1631.74 1649.96 1628.47 1676.63 1637.72 1690.72C1638.61 1692.07 1639.58 1693.59 1639.87 1694.09C1650.5 1712.53 1679.15 1720.55 1698.55 1710.53C1700.13 1709.71 1701.62 1709 1701.86 1708.94C1705.28 1708.13 1714.98 1698.3 1718.68 1691.89C1733.32 1666.52 1721.62 1635.03 1693.64 1624.54ZM1250.61 1389.37C1244.54 1387.91 1243.34 1387.79 1239.13 1388.2C1219.58 1390.13 1207.7 1413.01 1217.56 1429.8C1224.54 1441.7 1239.14 1447.24 1251.19 1442.56C1253.03 1441.84 1254.72 1441.21 1254.95 1441.15C1259.46 1439.94 1267.21 1430.52 1269.05 1424.01C1273.11 1409.62 1264.05 1392.61 1250.61 1389.37ZM1300.85 1431.23C1280.31 1429.38 1271.65 1455.84 1289.44 1466.11C1294.98 1469.31 1298.81 1469.74 1304.73 1467.81C1323.74 1461.62 1320.71 1433.02 1300.85 1431.23ZM1745.73 1714.61C1719.51 1709.44 1700.97 1737.96 1716.92 1758.94C1732.59 1779.55 1765.38 1769.42 1767.1 1743.44C1767.97 1730.27 1758.18 1717.06 1745.73 1714.61ZM1160.9 1384.45C1140.8 1383.17 1132.06 1409.31 1149.26 1419.24C1167.19 1429.59 1186.03 1408.96 1174.14 1392.01C1171.32 1388 1165.65 1384.75 1160.9 1384.45ZM1258.84 1455.58C1221.23 1440.74 1182.45 1475.63 1193.17 1514.67C1202.07 1547.05 1241.51 1561.65 1268.45 1542.53C1273.2 1539.16 1274.52 1538.02 1277.31 1534.9C1297.17 1512.68 1293.84 1479.51 1269.97 1461.73C1264.94 1457.99 1264.95 1457.99 1258.84 1455.58ZM1192.27 1426.59C1171.78 1424.59 1162.81 1451.49 1180.54 1461.73C1194.97 1470.06 1212.2 1456.99 1208.16 1440.77C1206.36 1433.52 1199.37 1427.29 1192.27 1426.59ZM1611.16 1668.79C1582.18 1657.36 1550.16 1677.94 1548.17 1709.27C1547.98 1712.23 1547.9 1714.86 1548 1715.11C1548.1 1715.36 1548.43 1717.51 1548.73 1719.9C1549.34 1724.72 1552.42 1732.53 1555.56 1737.25C1556.7 1738.94 1557.9 1740.76 1558.23 1741.29C1569.53 1759.13 1602.99 1763.77 1621.18 1750.02C1632.73 1741.3 1644.08 1719.97 1640.95 1712.89C1640.83 1712.63 1640.74 1711.01 1640.73 1709.28C1640.72 1705.21 1638.22 1695.82 1635.9 1691.12C1630.91 1681.03 1622.15 1673.13 1611.16 1668.79ZM1546.9 1637.16C1529.87 1632.85 1516.88 1653.53 1527.86 1667.48C1540.44 1683.47 1566.27 1669.88 1560.69 1650.21C1559.01 1644.31 1553.13 1638.74 1546.9 1637.16ZM1674.12 1721.94C1646.46 1717.77 1630.22 1750.36 1650.16 1770C1666.51 1786.09 1695.43 1774.96 1697.25 1751.88C1698.37 1737.6 1687.87 1724.01 1674.12 1721.94ZM724.519 1189.17C698.283 1181.18 671.441 1195.88 667.52 1220.38C667.005 1223.6 666.451 1230.13 666.644 1230.7C666.723 1230.94 666.83 1232.07 666.881 1233.22C667.132 1238.94 670.276 1247.88 673.78 1252.85C674.836 1254.35 675.978 1256.02 676.318 1256.57C686.241 1272.63 716.155 1276.46 733.924 1263.93C740.225 1259.49 741.005 1258.59 745.818 1250.22L750.34 1242.35L751.197 1236.21C752.535 1226.61 750.84 1215.47 747.182 1209.81C746.472 1208.71 745.876 1207.57 745.856 1207.27C745.608 1203.5 731.064 1191.16 724.519 1189.17ZM1093.04 1410.93C1085.93 1407.96 1077.6 1405.54 1069.54 1404.11C1062.07 1402.78 1048.29 1401.84 1045.5 1402.46C1044.9 1402.59 1044.22 1402.59 1043.98 1402.46C1040.01 1400.17 1005.69 1409.39 994.444 1415.77C989.698 1418.46 982.641 1422.74 982.476 1423.02C982.38 1423.19 980.766 1424.42 978.889 1425.77C977.012 1427.11 974.308 1429.27 972.882 1430.56C971.455 1431.84 969.465 1433.59 968.46 1434.44C952.218 1448.17 935.5 1480.97 933.448 1503.13C932.962 1508.37 932.364 1517.2 932.401 1518.57C933.371 1554.82 946.269 1583.1 972.698 1606.94C979.169 1612.78 999.514 1625.18 1006.29 1627.41C1022.03 1632.6 1028.83 1634.07 1040.53 1634.85C1047.46 1635.31 1047.5 1635.31 1054.67 1634.97C1066.87 1634.39 1081.13 1631.44 1090.41 1627.56C1092.88 1626.52 1095.12 1625.65 1095.38 1625.61C1095.65 1625.57 1098.28 1624.26 1101.22 1622.69C1104.17 1621.13 1107.29 1619.47 1108.16 1619.02C1134.21 1605.3 1159.09 1569.9 1163.35 1540.52C1163.58 1538.93 1163.97 1536.32 1164.21 1534.73C1164.71 1531.37 1165.4 1521.4 1165.35 1518.17C1165.23 1510.94 1165.14 1509.01 1164.89 1508.23C1164.73 1507.76 1164.52 1505.91 1164.41 1504.12C1164.15 1499.47 1159.06 1480.13 1156.68 1474.77C1155.58 1472.28 1154.55 1469.9 1154.4 1469.49C1146.28 1447.48 1119.63 1422.04 1093.04 1410.93ZM1507.18 1674.04C1470.92 1662.72 1437.84 1694.09 1447.63 1730.51C1453.6 1752.75 1474.56 1766.6 1498.13 1763.9C1546.11 1758.39 1553.16 1688.39 1507.18 1674.04ZM1106.07 1454.04C1109.02 1456.72 1111.73 1459.38 1112.09 1459.96C1112.45 1460.54 1113.12 1461.23 1113.57 1461.49C1116.56 1463.22 1126.06 1478.85 1129.37 1487.48C1149.69 1540.54 1112.12 1601.75 1057.35 1604.8C1055.01 1604.93 1052.68 1605.13 1052.18 1605.25C1049.96 1605.76 1036.7 1604.42 1030.49 1603.04C959.749 1587.39 938.404 1497.87 994.408 1451.72C1026.5 1425.27 1075.46 1426.29 1106.07 1454.04ZM1276.94 1568.83C1243.8 1555 1212.39 1557.98 1185.65 1577.49C1166.95 1591.13 1153.04 1614.15 1150.29 1636.01C1149.55 1641.87 1149.06 1649.25 1149.34 1650.35C1149.49 1650.94 1149.5 1651.62 1149.37 1651.85C1148.85 1652.74 1150.92 1667.3 1152.28 1672.35C1162.67 1711.04 1199.59 1739.14 1238.84 1738.25C1307.62 1736.69 1348.26 1665.66 1315.26 1604.68C1308.07 1591.4 1289.59 1574.11 1276.94 1568.83ZM1072.29 1465.3C1071.63 1465.11 1069.24 1464.36 1066.96 1463.64C1052.44 1459.04 1037.5 1459.79 1025.24 1465.73C1023.64 1466.5 1022.11 1467.17 1021.85 1467.21C1021.59 1467.25 1019.54 1468.49 1017.3 1469.96C974.064 1498.4 986.354 1564.69 1036.89 1575.63C1055.67 1579.69 1079.28 1572.45 1090.86 1559.09C1091.3 1558.57 1092.69 1557.02 1093.95 1555.63C1096.78 1552.51 1102.33 1542.93 1103.2 1539.67C1103.56 1538.34 1104.22 1536.3 1104.68 1535.15C1105.72 1532.5 1106.91 1525.49 1106.92 1521.91C1106.92 1521.33 1106.97 1520.11 1107.04 1519.19C1107.84 1508.13 1101.91 1491.48 1093.64 1481.62C1088.55 1475.55 1076.98 1466.71 1072.29 1465.3ZM729.434 1278.33C715.971 1276.6 705.665 1287.47 708.316 1300.61C711.979 1318.77 736.693 1321.44 743.98 1304.48C748.82 1293.21 741.4 1279.88 729.434 1278.33ZM1418.56 1676.27C1403.51 1671.17 1386.32 1680.65 1382.62 1696.11C1377.63 1716.96 1396.41 1735.49 1416.96 1729.96C1443.7 1722.77 1444.82 1685.17 1418.56 1676.27ZM1356.45 1650.58C1344.31 1646.96 1330.54 1659.86 1333.37 1672.21C1336.12 1684.23 1346.66 1690.6 1357.81 1686.96C1375.87 1681.08 1374.94 1656.09 1356.45 1650.58ZM1067.53 1497.83C1087.92 1515.18 1072.14 1550 1045.45 1546.53C1015.02 1542.58 1012.15 1499.88 1041.77 1491.95C1051.51 1489.34 1059.76 1491.23 1067.53 1497.83ZM907.615 1425.72C906.183 1425.25 904.633 1424.97 904.168 1425.09C903.704 1425.22 902.916 1425.08 902.418 1424.8C901.92 1424.51 901.03 1424.39 900.441 1424.53C899.853 1424.67 897.989 1424.88 896.299 1425.01C864.264 1427.34 864.715 1478.01 896.794 1480.67C930.774 1483.5 940.066 1436.31 907.615 1425.72ZM727.655 1323.5C723.235 1321.93 715.706 1320.32 714.877 1320.76C714.559 1320.94 713.984 1320.89 713.598 1320.67C709.642 1318.39 690.43 1322.48 681.793 1327.45C676.304 1330.61 676.232 1330.66 673.023 1333.35C635.267 1364.95 653.96 1427.02 702.821 1432.3C705.4 1432.58 707.707 1432.74 707.948 1432.65C708.19 1432.57 709.561 1432.49 710.995 1432.49C741.935 1432.46 766.293 1405.15 764.979 1371.98C764.185 1351.94 747.786 1330.64 727.655 1323.5ZM1347.77 1694.21C1315.71 1686.89 1299.16 1729 1327.66 1745.38C1350.33 1758.4 1377.44 1735.11 1367.22 1711.42C1366.63 1710.06 1366.12 1708.75 1366.07 1708.5C1365.22 1704.18 1354.4 1695.72 1347.77 1694.21ZM634.692 1323.58C625.644 1321.04 618.021 1324.18 613.314 1332.39C604.851 1347.14 618.005 1364.27 634.38 1359.81C652.826 1354.79 653.05 1328.73 634.692 1323.58ZM585.051 1297.02C559.561 1289.96 539.446 1318.54 554.596 1340.28C564.009 1353.79 584.568 1355.94 596.349 1344.65C612.21 1329.45 605.888 1302.8 585.051 1297.02ZM538.126 1277.66C526.103 1274.53 513.996 1284.69 514.884 1297.16C516.04 1313.38 534.852 1320.76 546.711 1309.66C557.492 1299.56 552.629 1281.44 538.126 1277.66ZM1127.11 1633.04C1111.57 1631.07 1100.28 1648.65 1108.77 1661.59C1120.53 1679.5 1147.2 1668.54 1143.4 1647.36C1142.19 1640.64 1134.64 1634 1127.11 1633.04ZM613.122 1366.38C562.428 1352.57 522.355 1405.89 549.839 1450.58C552.826 1455.44 557.237 1460.13 563.034 1464.63C579.372 1477.31 606.814 1479.92 622.567 1470.3C632.167 1464.43 632.517 1464.16 638.74 1457.7C666.511 1428.85 651.953 1376.96 613.122 1366.38ZM535.614 1334.08C513.865 1329.78 495.853 1350.9 503.732 1371.47C514.49 1399.55 556.162 1393.14 557.899 1363.13C558.686 1349.53 548.841 1336.69 535.614 1334.08ZM1113.84 1679.52C1054.72 1660.81 1013.09 1733.3 1058.96 1775.04C1075.37 1789.97 1104.55 1793.12 1122.3 1781.88C1123.25 1781.28 1124.24 1780.75 1124.5 1780.71C1125.01 1780.63 1128.93 1777.76 1132.24 1775.05C1143.38 1765.91 1151.34 1748.98 1151.61 1733.85C1151.77 1725.34 1147.51 1707.39 1144.99 1705.93C1144.81 1705.83 1144.29 1704.95 1143.84 1703.97C1139.54 1694.8 1125.2 1683.11 1113.84 1679.52ZM676.63 1431.84C654.047 1428.68 644.948 1459.06 665.813 1467.95C676.644 1472.57 689.552 1465.44 691.525 1453.75C693.221 1443.71 686.049 1433.16 676.63 1431.84ZM1044.62 1651.78C1023.97 1649.33 1014.99 1676.28 1032.98 1686.67C1043.55 1692.77 1054.91 1688.63 1059.88 1676.86C1064.35 1666.28 1056.38 1653.18 1044.62 1651.78ZM1177.39 1744.19C1168.1 1741.12 1157.23 1746.6 1154.14 1755.92C1147.93 1774.69 1169.96 1789.2 1184.77 1776.1C1195.3 1766.79 1191.13 1748.74 1177.39 1744.19ZM989.031 1651.86C951.286 1639.52 918.632 1681.54 939.805 1715.21C956.776 1742.2 997.191 1741.2 1012.76 1713.4C1026.01 1689.74 1014.64 1660.24 989.031 1651.86ZM445.98 1352.77C421.603 1344.83 397.928 1377.56 414.866 1395.79C415.455 1396.42 416.071 1397.25 416.235 1397.63C417.785 1401.23 429.421 1407.28 435.453 1407.62C468.743 1409.48 477.648 1363.08 445.98 1352.77ZM505.577 1392.24C479.563 1382.92 451.13 1401.32 449.023 1428.85C446.792 1457.99 473.21 1480.6 501.675 1473.91C542.329 1464.36 545.098 1406.4 505.577 1392.24ZM1239.51 1822.98C1237.57 1822.32 1234.96 1821.72 1233.72 1821.64C1232.47 1821.57 1231.22 1821.37 1230.94 1821.21C1222.29 1816.22 1197.39 1828.83 1189.74 1842.08C1172.65 1871.69 1198.39 1912.02 1230.64 1906.16C1237 1905 1239.56 1904.33 1243.09 1902.87C1245.31 1901.95 1247.21 1901.06 1247.31 1900.89C1247.41 1900.71 1248.27 1900.17 1249.22 1899.7C1253.45 1897.56 1260.25 1890.54 1263.44 1885.02C1276.95 1861.62 1265.44 1831.77 1239.51 1822.98ZM1174.05 1786.38C1162.79 1784.05 1154.14 1786.25 1146.58 1793.37C1125.8 1812.91 1145.64 1847.79 1173.31 1840.38C1200.08 1833.21 1200.64 1791.87 1174.05 1786.38ZM1119.12 1793.3C1102.62 1791.08 1091.73 1810.8 1102.29 1823.78C1110.79 1834.24 1126.51 1833.02 1133.23 1821.37C1140.08 1809.52 1132.86 1795.15 1119.12 1793.3ZM1347.47 1925.25C1329.55 1918.32 1299.87 1920.15 1294.96 1928.49C1294.76 1928.83 1294.12 1929.25 1293.54 1929.42C1287.93 1931.09 1276.86 1944.37 1272.57 1954.56C1255.78 1994.5 1286.63 2036.2 1330.03 2032.21C1365.89 2028.92 1389.51 1990.48 1376.44 1956.69C1374.19 1950.87 1373.64 1949.8 1370.58 1945.11C1365.67 1937.6 1354.44 1927.95 1347.47 1925.25ZM1013.28 1738.13C969.528 1727.89 941.454 1781.68 974.883 1811.7C997.051 1831.6 1033.28 1821.83 1042.95 1793.35C1050.91 1769.9 1036.79 1743.63 1013.28 1738.13ZM412.155 1400.83C388.154 1393.04 357.643 1411.55 356.854 1434.38C356.83 1435.06 356.697 1437.28 356.558 1439.31C356.136 1445.48 357.029 1450.5 359.995 1458.64C368.534 1482.06 402.787 1491.52 423.728 1476.23C440.612 1463.9 446.945 1436.74 436.595 1421.05C435.877 1419.97 435.054 1418.67 434.764 1418.17C430.355 1410.6 421.637 1403.91 412.155 1400.83ZM885.915 1679.58C864.114 1675.2 845.763 1698.22 854.961 1718.41C868.045 1747.12 910.686 1736.24 908.452 1704.75C907.581 1692.48 898.243 1682.05 885.915 1679.58ZM1076.77 1807.24C1076.42 1807.18 1074.61 1806.77 1072.75 1806.34C1069.39 1805.56 1064.07 1804.95 1062.59 1805.19C1062.16 1805.25 1060.23 1805.49 1058.28 1805.72C1055.28 1806.07 1053.38 1806.69 1047.49 1809.27C1025.22 1819 1021.94 1854.04 1041.88 1869.24C1076.99 1896.02 1119.27 1849.93 1090.32 1816.44C1088.41 1814.24 1078.54 1807.53 1076.77 1807.24ZM1146.76 1849.37C1141.02 1847.54 1137.63 1846.86 1135.08 1847.04C1134.02 1847.11 1132.99 1847.08 1132.79 1846.96C1132.6 1846.85 1130.51 1847.03 1128.14 1847.35C1114.77 1849.18 1104.9 1855.21 1098.09 1865.69C1076.58 1898.81 1104.69 1939.95 1142.74 1931.01C1184.02 1921.32 1186.93 1862.19 1146.76 1849.37ZM928.556 1727.57C900.086 1722.48 883.033 1755.84 903.877 1775.83C918.458 1789.82 944.356 1782.31 949.679 1762.55C953.811 1747.21 943.569 1730.25 928.556 1727.57ZM342.896 1392.32C335.624 1391.01 327.29 1394.98 323.5 1401.56C314.908 1416.49 329.024 1434.06 345.484 1428.93C364.145 1423.11 362.215 1395.8 342.896 1392.32ZM498.534 1484.48C488.294 1483.05 478.594 1490.1 476.994 1500.14C473.745 1520.53 501.136 1530.57 511.63 1512.84C518.613 1501.04 511.821 1486.34 498.534 1484.48ZM1206 1905.89C1192.97 1901.7 1177.02 1909.44 1172.05 1922.36C1160.99 1951.11 1196.04 1974.01 1218 1952.38C1232.55 1938.04 1225.91 1912.28 1206 1905.89ZM1249.35 1933.01C1224.66 1930.99 1220.41 1967.91 1245.03 1970.56C1254.22 1971.55 1267.53 1961.55 1265.77 1954.98C1265.63 1954.47 1265.75 1953.65 1266.03 1953.16C1269.54 1947.09 1258.51 1933.77 1249.35 1933.01ZM999 1827.6C992.923 1825.28 983.926 1825.84 977.742 1828.91C947.8 1843.79 963.94 1888.7 996.528 1881.19C1023.63 1874.94 1025.35 1837.62 999 1827.6ZM1053.63 1881.2C1053.28 1881.14 1051.35 1880.68 1049.34 1880.16C1014.33 1871.26 981.784 1894.1 978.324 1929.99C977.547 1938.05 980.62 1953.92 983.961 1959.09C984.643 1960.14 985.231 1961.23 985.268 1961.49C985.422 1962.6 990.632 1969.71 993.943 1973.33C998.107 1977.88 1012.68 1986.89 1018.04 1988.23C1073.98 2002.2 1113.56 1939.36 1075.86 1896.43C1072.15 1892.21 1056.82 1881.7 1053.63 1881.2ZM1153.74 1945.58C1147.51 1943.93 1140.74 1944.37 1135.87 1946.72C1134.34 1947.46 1132.87 1948.09 1132.6 1948.13C1127.59 1948.77 1119 1962.23 1118.44 1970.32C1116.6 1996.73 1148.83 2010.96 1166.92 1991.74C1181.22 1976.54 1173.91 1950.92 1153.74 1945.58ZM962.929 1882.21C949.186 1878.48 935.59 1892.76 940.129 1906.15C945.682 1922.54 967.249 1924.36 974.842 1909.08C980.251 1898.2 974.56 1885.36 962.929 1882.21ZM944.766 1924.56C917.995 1915.09 889.894 1934.71 888.371 1963.93C888.293 1965.42 888.305 1966.84 888.397 1967.08C888.489 1967.33 888.744 1969.27 888.965 1971.4C891.758 1998.35 923.98 2015.57 949.097 2003.53C983.792 1986.89 981.078 1937.4 944.766 1924.56Z" fill="#FADF4F"/>
</g>
<defs>
<clipPath id="clip0_797_38596">
<rect width="991" height="527" fill="white"/>
</clipPath>
</defs>
</svg>
